<?xml version="1.0" encoding="utf-8"?>
<!-- Generator: Adobe Illustrator 19.2.0, SVG Export Plug-In . SVG Version: 6.00 Build 0)  -->
<svg version="1.1" id="Layer_1" xmlns="http://www.w3.org/2000/svg" xmlns:xlink="http://www.w3.org/1999/xlink" x="0px" y="0px"
	 viewBox="0 0 723 438.1" style="enable-background:new 0 0 723 438.1;" xml:space="preserve">
<style type="text/css">
	.st0{fill:#FEFEFE;}
	.st1{fill:#181512;}
	.st2{fill:#F7F7F7;}
	.st3{fill:#F89030;}
	.st4{fill:#7EA846;}
</style>
<title>carrot</title>
<path class="st0" d="M75.7,208.2c4.9,18.7,0.1,31.2-11.8,43.3c-15,15.4-25.3,34.7-29.8,55.8c-2.9,13.2,0.1,25.6,13.9,29.1
	c10.8,2.7,11,8.6,12,16.7c5.5,40.6,22,56.8,63.2,56.6c51.2-0.3,102.6,5.1,153.5-3.8c5.4-0.9,8.7,1.9,12.8,3.9
	c27.9,13.7,59.7,6.9,79.6-16.1c3.5-4,5-14,11.5-10.7c6.9,3.5,15.4,6.9,18.4,16.7c6.7,22.4,18.4,28.4,40.2,20.1
	c7-2.7,12.7-2,19.2-0.8c43.7,8,87.4,10,130.9-0.5c10.4-2.5,17.5-0.4,24.7,7.5c5.5,6,11,15.2,21.4,11c9.9-4,12.6-13.8,13-23.2
	c0.3-9.7,3.1-15.5,12.5-19.6c66.8-29.1,91.4-134.5,14.2-187.2c-5.9-4-11.5-8.1-14.1-16c-23-71.1-77.4-99.5-146.9-106.4
	c-39.8-3.9-78.5,2.9-116.1,15.4c-14.9,4.9-22.2,4.4-30.2-12.7C341.6,31.4,295.8-1.1,233.5,0c-62.7,1.1-105.7,35.7-129.2,93.9
	c-4.8,11.7-8.8,23.7-12,36c-2.5,10.2-7.2,15.5-17.8,18.1c-23.7,5.8-44.8,17.1-61.8,34.9c-13.7,14.2-16.8,32.8-6.9,43
	c13.3,13.8,27.8,9.1,41.8,0.7C56.6,221.1,65.3,215.1,75.7,208.2z"/>
<path class="st1" d="M75.7,208.2c-10.4,6.9-19.1,12.9-28.1,18.4c-14,8.4-28.5,13.1-41.8-0.7c-9.9-10.2-6.8-28.8,6.9-43
	c17.1-17.8,38.1-29.2,61.8-34.9c10.6-2.6,15.3-7.9,17.8-18.1c3.2-12.3,7.2-24.3,12-36C127.8,35.7,170.8,1.2,233.5,0
	c62.3-1.1,108.1,31.4,134.4,87.3c8.1,17.1,15.3,17.6,30.2,12.7c37.6-12.4,76.4-19.3,116.1-15.4c69.5,6.9,123.9,35.3,146.9,106.4
	c2.6,7.9,8.1,12,14.1,16c77.2,52.7,52.6,158.1-14.2,187.2c-9.4,4.1-12.2,10-12.5,19.6c-0.3,9.4-3.1,19.2-13,23.2
	c-10.4,4.1-15.9-5.1-21.4-11c-7.2-7.8-14.3-10-24.7-7.5c-43.5,10.5-87.2,8.4-130.9,0.5c-6.5-1.2-12.2-1.9-19.2,0.8
	c-21.8,8.3-33.5,2.3-40.2-20.1c-3-9.9-11.4-13.2-18.4-16.7c-6.5-3.3-8,6.7-11.5,10.7c-19.9,23-51.8,29.7-79.6,16.1
	c-4.1-2-7.4-4.8-12.8-3.9c-51,8.9-102.4,3.4-153.6,3.8c-41.2,0.3-57.7-16-63.2-56.6c-1.1-8.1-1.3-14-12.1-16.7
	c-13.7-3.5-16.7-15.9-13.8-29.1c4.4-21,14.7-40.4,29.8-55.8C75.8,239.4,80.6,226.9,75.7,208.2z M218.7,281.4c2.2-4.1,5.1-8,6.6-12.3
	c2.4-6.8,13.7-11.6,9.5-18c-4.8-7.3-15.8-4.7-24.5-4.5c-2,0.1-4,0.3-5.9,0.7c-6.3,0.9-13.9,7.1-18.6,0.8c-5-6.7,6.6-8.5,7.5-14.1
	c0.8-4.5,0.5-9.3,0.4-13.9c-0.3-12.7-0.7-25.3-1.2-38c-0.5-13.7,5.6-14.8,15.6-8.4c12.3,7.9,24.9,15.4,36.6,24.2
	c20.3,15.2,20,15.5,1.5,31.7c-2.3,2-7,3.1-4.8,7.2c1.4,2.6,4.7,4.8,7.6,5.8c3.6,1.3,6.6-1.2,7.7-4.6c3-9.1,7.7-17.3,14.9-23.3
	c19.4-16.2,41.9-28,60.3-46.2c14.2-14,35.9-10,54.9-6c3-7.2-7.1-17.2,3.1-19.7c8.4-2.1,10.2,8.6,13.4,14.8
	c7.1,13.5,13,27.8,20.9,40.8c5.5,9,10.2,20.2,23.6,22.5c3-17.9-1.6-33.9-5.2-50.1c-2.1-9.7-4.7-19.5-5.4-29.4
	c-0.6-7.9,5.7-15.3,11.6-7.5c7.6,10.2,16,6.9,24.5,7c25.4,0.1,50.4,3.4,75.5,7.3c24.7,3.8,43.2,15.3,57.5,35.3
	c12.5,17.5,26,34.2,40.6,53.2c4.6-11.7,2.3-20.8,0.5-29.6c-11.5-56-57.6-96.1-119.1-104.7c-46.8-6.6-91.8,0.8-135.4,16.8
	c-20.6,7.6-29.2,4.6-37-17.3C338.5,52,286.5,15.9,239.1,16c-54.4,0.2-98,30.4-120,83.8c-4.8,11.6-9.3,23.7-11.5,36.1
	c-2.8,15.9-9.8,24.1-26.4,27.3c-21.1,4.1-40.4,14.7-55.4,30.1c-5.5,5.6-13.1,12.5-7.4,20.5c6.2,8.7,14.5,2.3,21.2-1.6
	c13.7-8.1,27-17,40.8-24.9c5.1-3,15.2-4.6,14.1,3c-3,20.8,7.4,43.8-10.6,62.6c-12.9,13.4-23.9,28.6-30,46.7
	c-2.4,7.1-8.9,16.5,0.6,21c9.9,4.6,12.8-5.9,16.2-13c7-14.6,16.6-27.4,29.9-36.9c4-2.9,9.9-6.5,14.3-0.9c4.7,5.9-0.8,9.6-4.9,12.9
	c-11.2,8.9-20.2,19.8-25.4,32.9c-14.1,35.1-11.7,78,46.7,77.6c39.3-0.3,78.6,0,117.9-0.3c6.3,0,16,3.2,18.1-3.7
	c2.2-7.3-3-15.6-10.4-19.6c-17.6-9.7-28.6-25.4-38.6-42C215.5,312.1,216,296.7,218.7,281.4L218.7,281.4z M675.8,363.6
	c44.1-44,38.5-113.2-8.5-140c-0.4,2-0.8,3.9-1.2,5.8c-2.1,11.3-4.3,24.3-16.8,27.2c-13.3,3.1-16.8-10.9-22.3-19.2
	c-14.4-21.7-31.5-41.2-48.1-61.2c-3-3.6-6.6-7.8-11.7-5c-4.2,2.4-1.2,7.2-1.1,10.8c0.3,13.3,1.2,26.6,1.1,40
	c0,6.8,2.2,17.2-8.1,17.1c-9.3-0.1-6.3-9.9-6.5-16.1c-0.5-15.3-0.9-30.7-0.6-46c0.2-8.7-2.2-13.2-11.7-14.8
	c-23.1-3.9-46.3-5.1-69.6-5.5c-12.2-0.2-14.3,4.6-11.7,15.8c3.2,13.5,5.7,27.5,6.2,41.4c0.6,17.6-10.4,27.2-26.3,22.3
	c-11-3.4-10.6,0.9-11,8.7c-0.3,6.5,2.9,17.4-8,16.6c-10.1-0.8-6.9-11.4-6.6-18.1c1-17.4,1.6-34-9.4-49.6c-6.4-9.1-9.6-8.2-16-1.2
	c-26.6,29-33,64.4-32.5,101.9c0.1,5.8,3.6,9.7,7.8,13.3c13.4,11.6,20.2,26.5,19.6,44.1c-0.4,12.4,8.4,17.5,16.4,23.1
	c9.6,6.8,12-4.5,17.4-8c7.8-5,15.1-12.8,25.1-8.6c10.6,4.4,12.3,14.9,13,25.2c0.2,3.3,0.2,6.7,0,10c-0.8,12.8,9.7,10.5,16.7,12
	c9.6,2,8.6-5.5,8.9-11.3c0.9-18.6,1.2-37.3,2.8-55.9c0.5-6.3-2.3-18,7.4-17.3c8,0.5,6.6,11.8,6.6,18.8c0,16,0.9,32.2-1.7,47.9
	c-3.2,18.9,4.7,22.8,21.3,22.7c30.2-0.2,60.2-1.9,88.7-12c58.6-20.9,51.8-8,57-71c0.2-2,0.1-4,0.3-6c0.5-4,1.1-9.2,5.2-9.7
	c6.2-0.8,6.6,5.3,7.8,9.7C679.3,334.1,676.4,347.2,675.8,363.6L675.8,363.6z M316.6,400.9c21.3,0.8,38.7-10.4,47-30.5
	c8.4-20.3,3.7-38.7-13-54c-5-4.6-14.2-6.2-12.9-15.9c5.3-39.8,3.2-81.9,35-113.6c6.2-6.1,5.1-10.5-3.8-11.8
	c-15.8-2.3-43.7,7.8-42.9,28.9c0.3,6.8-0.8,12.9-9.8,9.9c-21-7.2-33.4,8-39,21.5c-4.8,11.4-11.9,16.1-20.1,22
	c-30.5,21.7-34.9,59.1-9.8,84.5c2.7,2.7,8,7.1,9.1,6.3c19.7-14,16,4.5,18.3,13.3C280.9,384.7,297,400.2,316.6,400.9z M440.4,387
	c-0.8-5.6,0.8-14.3-7.8-12.7c-10.6,1.9-15.2,12.2-17.8,21.5c-1.9,6.8,4.5,11.1,10.8,10.8C437.7,406.1,439,396.2,440.4,387L440.4,387
	z M206.4,189.3c-3.5,9.6-0.2,19.4-0.8,29c-0.1,2.6,0.4,5.2,0.6,7.9c0.3,4.6,2.4,7.3,7.3,7.1c3.3-0.1,6.5-0.3,8.5-3.6
	C228.4,219.5,219,194.7,206.4,189.3z"/>
<path class="st2" d="M218.3,327.4c10,16.7,20.9,32.4,38.6,42.1c7.4,4.1,12.7,12.4,10.4,19.6c-2.1,6.9-11.8,3.7-18.1,3.7
	c-39.3,0.3-78.6,0.1-117.9,0.3c-58.4,0.4-60.9-42.5-46.7-77.6c5.2-13,14.2-24,25.4-32.9c4.1-3.2,9.5-7,4.9-12.9
	c-4.4-5.6-10.3-2-14.3,0.9c-13.2,9.5-22.8,22.2-29.9,36.9c-3.4,7.1-6.4,17.6-16.2,13c-9.6-4.5-3-13.9-0.6-21
	c6.1-18.1,17.1-33.3,30-46.7c18-18.8,7.6-41.8,10.6-62.6c1.1-7.7-8.9-6-14.1-3c-13.8,8-27.1,16.8-40.8,24.9
	c-6.7,4-15.1,10.3-21.2,1.6c-5.6-8,2-14.9,7.4-20.5c14.9-15.5,34.2-26,55.3-30.2c16.6-3.2,23.6-11.4,26.4-27.3
	c2.2-12.3,6.7-24.4,11.5-36.1c22-53.4,65.6-83.6,120-83.8c47.4-0.2,99.4,35.9,117.1,85.8c7.8,22,16.3,24.9,37,17.3
	c43.5-16,88.6-23.4,135.4-16.8c61.5,8.6,107.6,48.7,119.1,104.7c1.8,8.8,4.1,17.9-0.5,29.6c-14.6-19-28.1-35.7-40.6-53.2
	c-14.3-20-32.8-31.5-57.5-35.3c-25.1-3.8-50.1-7.1-75.5-7.3c-8.5,0-16.9,3.2-24.5-7c-5.8-7.8-12.2-0.5-11.6,7.5
	c0.7,9.9,3.2,19.7,5.4,29.4c3.5,16.1,8.2,32.2,5.2,50.1c-13.4-2.4-18.1-13.5-23.6-22.5c-8-13-13.9-27.2-20.9-40.8
	c-3.2-6.2-5-16.8-13.4-14.8c-10.2,2.5-0.1,12.5-3.1,19.7c-19-4-40.6-8-54.9,6c-18.5,18.1-40.9,30-60.3,46.2
	c-7.2,6-11.9,14.2-14.9,23.3c-1.1,3.3-4.1,5.9-7.7,4.6c-2.9-1-6.2-3.2-7.6-5.8c-2.2-4.1,2.5-5.2,4.8-7.2
	c18.5-16.2,18.8-16.6-1.5-31.7c-11.7-8.7-24.3-16.3-36.6-24.2c-10-6.4-16.2-5.2-15.6,8.4c0.5,12.7,0.9,25.3,1.2,38
	c0.1,4.6,0.4,9.4-0.4,13.9c-1,5.5-12.5,7.4-7.5,14.1c4.7,6.3,12.3,0.1,18.6-0.8c2-0.4,3.9-0.6,5.9-0.7c8.6-0.2,19.7-2.8,24.5,4.5
	c4.2,6.4-7.1,11.2-9.5,18c-1.5,4.3-4.4,8.2-6.6,12.3c-24.2-8.9-46.3,0.6-48.2,20.9C168.1,327.2,190.7,339.1,218.3,327.4z
	 M200.5,88.1c-17.2,0.2-30.3,13.5-30,30.4c0.3,16.2,13.2,28.6,29.6,28.3c17.1-0.3,29.2-13.7,28.6-31.4
	C228.4,100.1,215.8,88,200.5,88.1z M165.3,271.1c4.6-0.9,7.9-4,7-9.2c-0.8-4.6-4-8.4-9.5-7.3c-4,0.7-6.9,4.3-6.7,8.4
	C156.1,268.3,159.2,271.3,165.3,271.1z M162.4,175.4c3.9-0.7,7.7-2.7,7.9-8.5c0.2-4.9-3.3-7.4-7.4-7.7c-5.1-0.3-9.3,2.8-9.4,8.1
	C153.3,171.9,156.7,174.5,162.4,175.4L162.4,175.4z"/>
<path class="st3" d="M675.8,363.6c0.6-16.4,3.5-29.5,0-42.5c-1.2-4.4-1.6-10.5-7.8-9.7c-4.2,0.5-4.8,5.8-5.2,9.7c-0.2,2-0.2,4-0.3,6
	c-5.2,63,1.6,50.1-57,71c-28.5,10.1-58.5,11.8-88.7,12c-16.6,0.1-24.5-3.8-21.3-22.7c2.6-15.6,1.7-31.9,1.7-47.9
	c0-7,1.3-18.3-6.6-18.8c-9.8-0.7-6.9,11-7.4,17.3c-1.6,18.6-1.9,37.2-2.8,55.9c-0.3,5.9,0.7,13.4-8.9,11.3c-7-1.5-17.5,0.8-16.7-12
	c0.2-3.3,0.2-6.7,0-10c-0.6-10.3-2.4-20.8-13-25.2c-10-4.2-17.3,3.6-25.1,8.6c-5.4,3.5-7.8,14.8-17.4,8c-8-5.6-16.8-10.7-16.4-23.1
	c0.6-17.6-6.2-32.5-19.6-44.1c-4.2-3.6-7.7-7.5-7.8-13.3c-0.5-37.6,5.9-72.9,32.5-101.9c6.4-7,9.6-7.9,16,1.2
	c11,15.6,10.3,32.2,9.4,49.6c-0.4,6.7-3.6,17.3,6.6,18.1c10.9,0.8,7.6-10.1,8-16.6c0.4-7.8,0-12.1,11-8.7c16,4.9,26.9-4.7,26.3-22.3
	c-0.5-13.9-2.9-27.8-6.2-41.4c-2.7-11.2-0.6-16,11.7-15.8c23.3,0.4,46.5,1.7,69.6,5.5c9.5,1.6,11.8,6.1,11.7,14.8
	c-0.3,15.3,0.1,30.6,0.6,46c0.2,6.2-2.7,16,6.5,16.1c10.4,0.1,8.1-10.3,8.1-17.1c0-13.3-0.8-26.6-1.1-40c-0.1-3.7-3.1-8.5,1.1-10.8
	c5-2.8,8.7,1.4,11.7,5c16.6,20,33.7,39.5,48.1,61.2c5.5,8.3,9,22.3,22.3,19.2c12.5-2.9,14.7-15.8,16.8-27.2c0.3-1.9,0.8-3.8,1.2-5.8
	C714.3,250.4,719.9,319.6,675.8,363.6z"/>
<path class="st4" d="M316.6,400.9c-19.6-0.8-35.7-16.2-41.9-39.6c-2.3-8.7,1.4-27.2-18.3-13.3c-1,0.7-6.4-3.6-9.1-6.3
	c-25.2-25.4-20.7-62.8,9.8-84.5c8.2-5.8,15.3-10.6,20.1-22c5.6-13.4,18-28.6,39-21.5c9,3.1,10.1-3.1,9.8-9.9
	c-0.8-21,27.1-31.2,42.9-28.9c8.9,1.3,10,5.7,3.8,11.8c-31.8,31.7-29.7,73.8-35,113.6c-1.3,9.7,7.9,11.3,12.9,15.9
	c16.7,15.3,21.4,33.7,13,54C355.3,390.5,337.9,401.8,316.6,400.9z"/>
<path class="st3" d="M218.3,327.4c-27.6,11.7-50.3-0.2-47.8-25.1c2-20.2,24-29.8,48.2-20.9C216,296.7,215.5,312.1,218.3,327.4z"/>
<path class="st2" d="M440.4,387c-1.4,9.2-2.7,19-14.8,19.5c-6.3,0.3-12.7-4-10.8-10.8c2.6-9.2,7.2-19.6,17.8-21.5
	C441.3,372.8,439.7,381.4,440.4,387z"/>
<path class="st2" d="M206.4,189.3c12.6,5.4,22,30.2,15.7,40.3c-2.1,3.3-5.2,3.5-8.5,3.6c-5,0.2-7-2.5-7.3-7.1
	c-0.2-2.6-0.7-5.3-0.6-7.9C206.1,208.7,202.9,198.9,206.4,189.3z"/>
<path class="st3" d="M200.5,88.1c15.3-0.1,27.8,12,28.2,27.3c0.6,17.7-11.5,31.1-28.6,31.4c-16.4,0.3-29.4-12.1-29.6-28.3
	C170.3,101.6,183.3,88.3,200.5,88.1z"/>
<path class="st1" d="M165.3,271.1c-6.1,0.1-9.1-2.9-9.2-8.1c-0.2-4.1,2.7-7.7,6.7-8.4c5.5-1.1,8.6,2.7,9.5,7.3
	C173.1,267.1,169.9,270.2,165.3,271.1z"/>
<path class="st1" d="M162.3,175.5c-5.6-1-9.1-3.5-8.9-8c0.2-5.4,4.3-8.4,9.4-8.1c4,0.2,7.6,2.7,7.4,7.7
	C170,172.8,166.2,174.8,162.3,175.5z"/>
<path class="st2" d="M639.1,411.2c0,6-4.4,11.7-8.1,11.9c-3.2,0.2-8.7-3.1-10.8-5.5c-3.3-5.6-1.3-9.5,9.3-11.4
	C638.2,404.7,639.1,407.5,639.1,411.2z"/>
</svg>
